<svg width="32" height="32" viewBox="0 0 32 32" fill="none" xmlns="http://www.w3.org/2000/svg">
<path d="M11.875 22H20.125C20.2625 22 20.375 21.8875 20.375 21.75V19.125C20.375 18.9875 20.2625 18.875 20.125 18.875H18.875C18.7375 18.875 18.625 18.9875 18.625 19.125V20.25H13.375V19.125C13.375 18.9875 13.2625 18.875 13.125 18.875H11.875C11.7375 18.875 11.625 18.9875 11.625 19.125V21.75C11.625 21.8875 11.7375 22 11.875 22ZM22.5 18.1562C22.5 18.4878 22.6317 18.8057 22.8661 19.0401C23.1005 19.2746 23.4185 19.4062 23.75 19.4062C24.0815 19.4062 24.3995 19.2746 24.6339 19.0401C24.8683 18.8057 25 18.4878 25 18.1562C25 17.8247 24.8683 17.5068 24.6339 17.2724C24.3995 17.0379 24.0815 16.9062 23.75 16.9062C23.4185 16.9062 23.1005 17.0379 22.8661 17.2724C22.6317 17.5068 22.5 17.8247 22.5 18.1562ZM29.9688 12.9187L29.2281 11.625C29.1948 11.568 29.1403 11.5264 29.0765 11.5094C29.0127 11.4925 28.9447 11.5014 28.8875 11.5344L27.3031 12.4594L24.8563 5.70312C24.7271 5.29998 24.4731 4.94833 24.131 4.69893C23.789 4.44954 23.3765 4.31531 22.9531 4.31562H9.41251C8.32813 4.31562 7.36563 5.01562 7.03126 6.05L4.70001 12.4625L3.11251 11.5375C3.05527 11.5046 2.98732 11.4956 2.9235 11.5126C2.85968 11.5295 2.80518 11.5711 2.77188 11.6281L2.03126 12.9187C1.96251 13.0375 2.00313 13.1875 2.12188 13.2563L4.00938 14.3562L3.55626 15.6062C3.51876 15.7063 3.50001 15.8125 3.50001 15.9187V26.8C3.50001 27.2906 3.86876 27.6875 4.32188 27.6875H6.43438C6.81876 27.6875 7.15313 27.3969 7.23438 26.9906L7.47501 25.8125H24.525L24.7656 26.9906C24.85 27.3969 25.1813 27.6875 25.5656 27.6875H27.6781C28.1313 27.6875 28.5 27.2906 28.5 26.8V15.9187C28.5 15.8125 28.4813 15.7063 28.4438 15.6062L27.9906 14.3562L29.875 13.2563C29.9317 13.2235 29.9733 13.1698 29.9909 13.1067C30.0084 13.0435 30.0005 12.9761 29.9688 12.9187ZM26.25 16.1562V23.5625H5.75001V16.1562L6.23751 14.8125H25.7625L26.25 16.1562ZM9.14688 6.81562L9.16251 6.775L9.17501 6.73437C9.20938 6.63125 9.30313 6.5625 9.41251 6.5625H22.775L25.1313 13.0625H6.87501L9.14688 6.81562ZM7.00001 18.1562C7.00001 18.4878 7.1317 18.8057 7.36612 19.0401C7.60054 19.2746 7.91848 19.4062 8.25001 19.4062C8.58153 19.4062 8.89947 19.2746 9.13389 19.0401C9.36831 18.8057 9.50001 18.4878 9.50001 18.1562C9.50001 17.8247 9.36831 17.5068 9.13389 17.2724C8.89947 17.0379 8.58153 16.9062 8.25001 16.9062C7.91848 16.9062 7.60054 17.0379 7.36612 17.2724C7.1317 17.5068 7.00001 17.8247 7.00001 18.1562Z" fill="#7B341E"/>
</svg>
