<svg width="32" height="32" viewBox="0 0 32 32" fill="none" xmlns="http://www.w3.org/2000/svg">
<path d="M18.6667 2.66666C21.1067 2.66549 23.4733 3.50088 25.3718 5.03349C27.2704 6.5661 28.5861 8.70329 29.0996 11.0886C29.6131 13.4739 29.2932 15.9632 28.1934 18.1412C27.0936 20.3193 25.2804 22.0544 23.056 23.0573C22.345 24.6292 21.2634 26.0052 19.9039 27.0672C18.5443 28.1293 16.9474 28.8457 15.2502 29.1551C13.553 29.4645 11.806 29.3576 10.1592 28.8436C8.51234 28.3295 7.01475 27.4237 5.79485 26.2038C4.57495 24.9839 3.66914 23.4864 3.15512 21.8395C2.6411 20.1927 2.53419 18.4457 2.84358 16.7485C3.15297 15.0512 3.86941 13.4544 4.93146 12.0948C5.99352 10.7353 7.36949 9.65365 8.94137 8.94266C9.78689 7.07184 11.1542 5.48466 12.8792 4.37147C14.6042 3.25828 16.6137 2.66634 18.6667 2.66666ZM13.3334 10.6667C12.2828 10.6667 11.2425 10.8736 10.2719 11.2756C9.30129 11.6777 8.41938 12.2669 7.67651 13.0098C6.93364 13.7527 6.34437 14.6346 5.94233 15.6052C5.54029 16.5758 5.33337 17.6161 5.33337 18.6667C5.33337 19.7172 5.54029 20.7575 5.94233 21.7281C6.34437 22.6987 6.93364 23.5806 7.67651 24.3235C8.41938 25.0664 9.30129 25.6557 10.2719 26.0577C11.2425 26.4597 12.2828 26.6667 13.3334 26.6667C15.4551 26.6667 17.4899 25.8238 18.9902 24.3235C20.4905 22.8232 21.3334 20.7884 21.3334 18.6667C21.3334 16.5449 20.4905 14.5101 18.9902 13.0098C17.4899 11.5095 15.4551 10.6667 13.3334 10.6667ZM14.6667 12V13.3333H17.3334V16H12C11.8334 15.9997 11.6728 16.0618 11.5497 16.174C11.4265 16.2862 11.3499 16.4405 11.3349 16.6064C11.3198 16.7723 11.3674 16.9379 11.4683 17.0704C11.5692 17.203 11.7161 17.293 11.88 17.3227L12 17.3333H14.6667C15.5508 17.3333 16.3986 17.6845 17.0237 18.3096C17.6488 18.9348 18 19.7826 18 20.6667C18 21.5507 17.6488 22.3986 17.0237 23.0237C16.3986 23.6488 15.5508 24 14.6667 24V25.3333H12V24H9.33337V21.3333H14.6667C14.8333 21.3336 14.994 21.2716 15.1171 21.1593C15.2402 21.0471 15.3168 20.8928 15.3319 20.7269C15.3469 20.561 15.2993 20.3954 15.1984 20.2629C15.0975 20.1303 14.9506 20.0403 14.7867 20.0107L14.6667 20H12C11.116 20 10.2681 19.6488 9.64301 19.0237C9.01789 18.3986 8.6667 17.5507 8.6667 16.6667C8.6667 15.7826 9.01789 14.9348 9.64301 14.3096C10.2681 13.6845 11.116 13.3333 12 13.3333V12H14.6667ZM18.6667 5.33332C17.5369 5.332 16.4198 5.57058 15.3891 6.03327C14.3585 6.49597 13.4378 7.17223 12.688 8.01732C14.1951 7.92584 15.7043 8.15532 17.116 8.69059C18.5278 9.22585 19.8098 10.0547 20.8773 11.1224C21.9448 12.19 22.7735 13.4721 23.3086 14.8839C23.8437 16.2957 24.073 17.805 23.9814 19.312C25.1937 18.2342 26.0496 16.8133 26.4358 15.2377C26.8219 13.6622 26.72 12.0065 26.1435 10.4903C25.5671 8.97403 24.5433 7.66884 23.2079 6.74783C21.8726 5.82682 20.2888 5.33351 18.6667 5.33332Z" fill="#276749"/>
</svg>
