<svg width="32" height="32" viewBox="0 0 32 32" fill="none" xmlns="http://www.w3.org/2000/svg">
<path d="M27.4489 7.11111H4.55114C4.29182 7.11111 4.04312 7.21413 3.85975 7.3975C3.67638 7.58087 3.57336 7.82957 3.57336 8.08889C3.57336 8.34822 3.67638 8.59692 3.85975 8.78029C4.04312 8.96365 4.29182 9.06667 4.55114 9.06667H27.4489C27.7082 9.06667 27.9569 8.96365 28.1403 8.78029C28.3237 8.59692 28.4267 8.34822 28.4267 8.08889C28.4267 7.82957 28.3237 7.58087 28.1403 7.3975C27.9569 7.21413 27.7082 7.11111 27.4489 7.11111Z" fill="#2D3748"/>
<path d="M22.6667 14.4C22.926 14.4 23.1747 14.297 23.3581 14.1136C23.5415 13.9302 23.6445 13.6815 23.6445 13.4222C23.6445 13.1629 23.5415 12.9142 23.3581 12.7308C23.1747 12.5475 22.926 12.4444 22.6667 12.4444H9.33337C9.07405 12.4444 8.82534 12.5475 8.64198 12.7308C8.45861 12.9142 8.35559 13.1629 8.35559 13.4222C8.35559 13.6815 8.45861 13.9302 8.64198 14.1136C8.82534 14.297 9.07405 14.4 9.33337 14.4H22.6667Z" fill="#2D3748"/>
<path d="M26.8889 17.7778H5.11108C4.85176 17.7778 4.60305 17.8808 4.41969 18.0642C4.23632 18.2475 4.1333 18.4962 4.1333 18.7555C4.1333 19.0149 4.23632 19.2636 4.41969 19.4469C4.60305 19.6303 4.85176 19.7333 5.11108 19.7333H26.8889C27.1482 19.7333 27.3969 19.6303 27.5802 19.4469C27.7636 19.2636 27.8666 19.0149 27.8666 18.7555C27.8666 18.4962 27.7636 18.2475 27.5802 18.0642C27.3969 17.8808 27.1482 17.7778 26.8889 17.7778Z" fill="#2D3748"/>
<path d="M22.1155 23.1111H9.88439C9.75599 23.1111 9.62884 23.1364 9.51021 23.1855C9.39159 23.2347 9.2838 23.3067 9.193 23.3975C9.10221 23.4883 9.03018 23.5961 8.98105 23.7147C8.93191 23.8333 8.90662 23.9605 8.90662 24.0889C8.90662 24.2173 8.93191 24.3444 8.98105 24.4631C9.03018 24.5817 9.10221 24.6895 9.193 24.7803C9.2838 24.8711 9.39159 24.9431 9.51021 24.9922C9.62884 25.0414 9.75599 25.0667 9.88439 25.0667H22.1155C22.2439 25.0667 22.3711 25.0414 22.4897 24.9922C22.6083 24.9431 22.7161 24.8711 22.8069 24.7803C22.8977 24.6895 22.9697 24.5817 23.0189 24.4631C23.068 24.3444 23.0933 24.2173 23.0933 24.0889C23.0933 23.9605 23.068 23.8333 23.0189 23.7147C22.9697 23.5961 22.8977 23.4883 22.8069 23.3975C22.7161 23.3067 22.6083 23.2347 22.4897 23.1855C22.3711 23.1364 22.2439 23.1111 22.1155 23.1111Z" fill="#2D3748"/>
</svg>
