<svg width="52" height="52" viewBox="0 0 52 52" fill="none" xmlns="http://www.w3.org/2000/svg">
<rect width="52" height="52" rx="12" fill="#A0AEC0"/>
<path fill-rule="evenodd" clip-rule="evenodd" d="M16 38C16 38 14 38 14 36C14 34 16 28 26 28C36 28 38 34 38 36C38 38 36 38 36 38H16ZM26 26C27.5913 26 29.1174 25.3679 30.2426 24.2426C31.3679 23.1174 32 21.5913 32 20C32 18.4087 31.3679 16.8826 30.2426 15.7574C29.1174 14.6321 27.5913 14 26 14C24.4087 14 22.8826 14.6321 21.7574 15.7574C20.6321 16.8826 20 18.4087 20 20C20 21.5913 20.6321 23.1174 21.7574 24.2426C22.8826 25.3679 24.4087 26 26 26Z" fill="#2D3748"/>
</svg>
