<svg width="14" height="13" viewBox="0 0 14 13" fill="none" xmlns="http://www.w3.org/2000/svg">
<path d="M12.9578 3.08281L10.4172 0.542187C10.3 0.425 10.1562 0.339062 10 0.292187V0.25H1.25C0.973437 0.25 0.75 0.473437 0.75 0.75V12.25C0.75 12.5266 0.973437 12.75 1.25 12.75H12.75C13.0266 12.75 13.25 12.5266 13.25 12.25V3.78906C13.25 3.52344 13.1453 3.27031 12.9578 3.08281ZM5 1.375H9V3H5V1.375ZM12.125 11.625H1.875V1.375H4V3.5C4 3.77656 4.22344 4 4.5 4H9.5C9.77656 4 10 3.77656 10 3.5V1.71563L12.125 3.84062V11.625ZM7 5.40625C5.75781 5.40625 4.75 6.41406 4.75 7.65625C4.75 8.89844 5.75781 9.90625 7 9.90625C8.24219 9.90625 9.25 8.89844 9.25 7.65625C9.25 6.41406 8.24219 5.40625 7 5.40625ZM7 8.90625C6.30937 8.90625 5.75 8.34688 5.75 7.65625C5.75 6.96562 6.30937 6.40625 7 6.40625C7.69063 6.40625 8.25 6.96562 8.25 7.65625C8.25 8.34688 7.69063 8.90625 7 8.90625Z" fill="white"/>
</svg>
